<svg xmlns="http://www.w3.org/2000/svg" width="74" height="18" viewBox="0 0 74 18"><defs><style>.a{fill:none;}.b{fill:#fff;}</style></defs><g transform="translate(-971.253 -68.958)"><rect class="a" width="74" height="18" transform="translate(971.253 68.958)"/><path class="b" d="M981.888,81.972h-5.693l-1.057,2.615h-3.885l5.942-13.461h3.75l5.961,13.461h-3.962Zm-1.117-2.807-1.73-4.308-1.73,4.308Z" transform="translate(0 0.101)"/><path class="b" d="M981.142,77.958c0-4.095,3.133-7,7.4-7a7.114,7.114,0,0,1,5.786,2.54l-2.422,2.192a3.971,3.971,0,0,0-3.171-1.576,3.847,3.847,0,0,0,0,7.691,3.976,3.976,0,0,0,3.171-1.576l2.422,2.192a7.117,7.117,0,0,1-5.786,2.538C984.275,84.958,981.142,82.054,981.142,77.958Z" transform="translate(9.966)"/><path class="b" d="M1002.58,84.587l-.038-7.135L999.08,83.26h-1.69l-3.444-5.615v6.942h-3.518V71.126h3.134l4.73,7.77,4.614-7.77h3.135l.038,13.461Z" transform="translate(19.824 0.101)"/><path class="b" d="M1012.683,81.645v2.942h-10.806V71.126h10.556v2.942h-6.787v2.27h5.979v2.846h-5.979v2.461Z" transform="translate(31.476 0.101)"/></g></svg>